<?xml version="1.0" ?><svg viewBox="0 0 128 128" xmlns="http://www.w3.org/2000/svg"><g id="a"/><g id="b"><path d="M82.8135,34.4795c.1572,.2407,.4092,.4028,.6934,.4443,.0488,.0073,.0977,.0107,.1455,.0107,.2354,0,.4648-.083,.6465-.2368l4.6953-3.978c.3975-.3374,.4697-.9233,.166-1.3467l-10.5-14.6089c-.3154-.438-.9219-.5483-1.3701-.2466l-4.3691,2.9351c-.4531,.3047-.5781,.917-.2812,1.375l10.1738,15.6519Zm-5.2129-17.7617l9.3965,13.0728-3.125,2.6475-9.0186-13.8745,2.7471-1.8457Zm16.9775,13.3291l.0469-.001,6.3896-.2969c.5303-.0249,.9492-.4604,.9531-.9917l.1465-19.75c.002-.2666-.1025-.5225-.29-.7119-.1875-.189-.4434-.2954-.71-.2954h-4.8096c-.5186,0-.9521,.397-.9961,.9141l-1.7266,20.0469c-.0254,.2871,.0752,.5713,.2754,.7788,.1885,.1968,.4492,.3071,.7207,.3071Zm2.6445-20.0469h2.8838l-.1318,17.7949-4.3018,.2002,1.5498-17.9951Zm9.8281,30.6597c.1826,.1602,.417,.2476,.6582,.2476,.0225,0,.0459-.001,.0684-.0024,.2656-.0181,.5127-.1416,.6875-.3428l8.1084-9.3545c.1768-.2036,.2627-.4697,.2402-.7383s-.1523-.5166-.3604-.688l-4.3828-3.6123c-.2119-.1753-.4854-.2539-.7637-.2202-.2734,.0352-.5215,.1821-.6826,.4062l-7.1787,9.9448c-.3027,.4185-.2363,.998,.1523,1.3379l3.4531,3.022Zm4.5703-12.2695l2.7695,2.2822-6.7793,7.8208-2.0117-1.7607,6.0215-8.3423Zm7.0215,35.8467c-2.2686-3.6885-7.21-5.98-11.9883-5.5703-8.0342,.686-8.3945,7.3457-8.3975,7.4131-.0107,.2676,.0859,.5283,.2695,.7236,.1826,.1953,.4365,.3091,.7041,.3159,9.2041,.2329,9.4385,8.4468,9.4434,8.7935,.0039,.3569,.1973,.6851,.5088,.8604,.1523,.0864,.3213,.1294,.4912,.1294,.1758,0,.3516-.0464,.5078-.1387,2.6396-1.5562,6.3486-.2305,6.3857-.2163,.4482,.1655,.9463-.0083,1.1963-.4131,2.6484-4.2881,2.96-8.5132,.8789-11.8975Zm-2.1924,10.1875c-1.2275-.3213-3.6504-.7559-5.9443,.0098-.4961-2.7593-2.4453-8.5327-10.0791-9.2471,.4092-1.4741,1.7852-4.1338,6.3975-4.5273,4.002-.3438,8.2568,1.6021,10.1152,4.625,1.5869,2.5811,1.415,5.7285-.4893,9.1396Zm-23.8258-7.5336c1.546-2.6971,3.0555-5.7487,4.1051-8.8648,2.8379-8.4209,1.7695-14.938-3.0068-18.3501-2.6689-1.9077-5.8711-2.2974-8.3564-1.0176-2.1143,1.0884-3.3262,3.2178-3.3252,5.8423,.001,1.9346,.5703,3.4434,1.6914,4.4854,.8564,.7954,1.8701,1.146,2.6689,1.2979-.2012,.6885-.4717,1.4482-.8311,2.2837-.425,.989-1.0159,2.0642-1.6908,3.1663-3.0651-3.0912-6.4431-5.8656-10.0789-8.2603,.6594-2.0349,.9373-4.2447,.7931-6.5925-.4258-6.9219-4.6611-14.3086-9.4434-16.4663-8.3887-3.7866-13.0742,1.7871-13.1201,1.8442-.1709,.209-.25,.478-.2188,.7461,.0303,.2681,.168,.5122,.3818,.6772,2.6807,2.0728,4.8516,5.6558,4.873,5.6914,.1729,.2876,.4785,.4697,.8135,.4844,1.543,.0684,2.8379,.2822,3.9238,.583,1.778,2.282,2.7347,5.2379,3.2148,8.2118-3.9556-1.7446-7.9971-2.9937-12.0371-3.7186-.2316-.0412-.4651,.0011-.6644,.1129l-.0006-.0011-.0089,.0052-.0079,.0046c-.6023,.3431-33.449,19.5391-43.6932,76.1992-.2119,1.1724,.1025,2.3696,.8613,3.2847,.7529,.9092,1.8623,1.4355,3.042,1.4443,.3252,.0024,.667,.0039,1.0273,.0039,15.0869,0,60.8271-2.4243,85.2139-30.1533l-.0171-.015c.1508-.1722,.2574-.379,.2651-.6115,.2481-7.2294-1.9587-14.9336-6.3746-22.3173Zm-5.2162-13.5338c.5566-1.2969,.9297-2.4487,1.167-3.4648,.0957-.1665,.1455-.3623,.1309-.5684,0-.0112-.001-.022-.002-.0332,.7188-3.7437-.4609-5.46-.6387-5.6914-.3291-.4302-.9316-.5103-1.373-.1914-.4385,.3179-.5361,.939-.2305,1.3862,.0107,.0151,.7061,1.0786,.3672,3.5361-.5225-.0918-1.2041-.3101-1.748-.8213-.6895-.6484-1.0391-1.6606-1.04-3.0093-.001-1.876,.7949-3.3188,2.2402-4.063,1.791-.9219,4.252-.5811,6.2793,.8662,3.999,2.8569,4.8066,8.5693,2.2744,16.0845-2.5889,7.6836-8.2852,15.272-9.75,17.1489-1.4717-.27-5.7178-1.4048-8.7188-5.8018,1.9463-2.1597,8.6523-9.8164,11.042-15.3774Zm-28.9131-21.4678c-.6221-.9609-2.1943-3.2397-4.1895-5.0435,1.3945-1.1108,4.7852-2.9707,10.0225-.6079,3.6562,1.6499,7.8525,7.9771,8.2686,14.7656,.2295,3.7349-.5938,8.7788-5.4355,12.6196,.4355-3.8496,.832-11.7036-2.0967-17.6938,1.6934,1.2002,2.1387,2.4907,2.1738,2.6006,.1592,.5244,.707,.8267,1.2393,.6689,.5293-.1558,.833-.7114,.6768-1.2417-.0664-.2271-1.7129-5.4741-10.6592-6.0679Zm6.8102,13.105c.4724,5.5165-.4253,10.4882-.441,10.5723-.0723,.3877,.0908,.7822,.415,1.0063,.1709,.1177,.3691,.1772,.5684,.1772,.1797,0,.3594-.0483,.5195-.1455,3.0533-1.8578,5.3004-4.3218,6.677-7.2263,3.5129,2.348,6.7792,5.0544,9.7317,8.0761-3.4999,5.1824-8.3369,10.4268-8.4009,10.4963-.3047,.3286-.3535,.8198-.1191,1.2017,4.1279,6.7427,10.8799,7.4268,11.165,7.4526,.0303,.0024,.0596,.0039,.0898,.0039,.2979,0,.583-.1333,.7734-.3667,.172-.2095,2.569-3.1636,5.1637-7.3693,3.6151,6.3513,5.5406,12.8929,5.5697,19.0841-25.1504-5.2358-39.2451-20.5576-43.0332-46.7905,3.8054,.7978,7.6039,2.0911,11.3209,3.8276Zm-13.2709-3.4c2.0694,14.1788,7.0568,25.2744,15.0784,33.4023,.4109,3.3619,2.496,17.4526,9.634,29.2584-3.6326,1.9103-7.3781,3.5615-11.1646,4.9818-1.9518-3.9722-10.7628-22.2224-14.4387-35.3377-3.8616-13.7762-4.504-25.5123-4.6008-28.0526,2.4133-2.0881,4.3242-3.4677,5.4916-4.2521Zm17.4315,35.6218c2.2128,1.9489,4.6285,3.701,7.2466,5.2605,.5308,2.1677,2.9557,11.2695,7.5503,17.3229-1.8686,1.255-3.7887,2.425-5.7485,3.5144-5.7361-9.456-8.1608-20.7286-9.0485-26.0978Zm-24.8379-29.6482c.2684,4.3963,1.2288,14.8804,4.5898,26.8712,3.6612,13.0641,12.3223,31.0944,14.4774,35.4913-2.0284,.7191-4.0622,1.3739-6.0911,1.9721-1.8104-3.6776-10.7877-22.209-14.5074-35.4776-2.5905-9.2427-3.7388-17.4962-4.2491-22.9538,2.0629-2.3136,4.0115-4.2655,5.7804-5.9032Zm-17.238,21.6034c3.226-5.3824,6.5302-9.8986,9.658-13.6185,.5963,5.4722,1.7777,13.0439,4.1229,21.4122,3.6626,13.0661,12.3249,31.0994,14.4782,35.4927-4.8171,1.3369-9.5765,2.3643-14.1123,3.1398-1.9719-3.5034-12.1696-22.6271-14.1468-46.4262Zm12.0511,46.7686c-2.2145,.3481-4.3668,.6407-6.4373,.8832-3.4203-6.7088-9.1657-19.7949-11.7039-36.0834,1.41-3.0723,2.8763-5.9255,4.3704-8.5963,2.4048,21.7088,11.2046,39.1034,13.7707,43.7964Zm-26.9158,2.0441c-.5889-.0044-1.1426-.2671-1.5186-.7207-.3809-.46-.5391-1.0625-.4316-1.6528,2.2122-12.2357,5.4868-22.6903,9.2561-31.5599,2.6815,14.6357,7.7623,26.4458,11.0492,33.0087-7.9232,.8276-14.4623,.9545-18.3551,.9247Zm73.3743-19.3356c-3.5117-4.5978-5.7513-11.3223-6.7464-14.8016,4.9629,2.6099,10.5956,4.5864,16.9075,5.9437-3.0984,3.3264-6.5165,6.2655-10.1611,8.858ZM27.5,42c3.584,0,6.5-2.916,6.5-6.5s-2.916-6.5-6.5-6.5-6.5,2.916-6.5,6.5,2.916,6.5,6.5,6.5Zm0-11c2.4814,0,4.5,2.0186,4.5,4.5s-2.0186,4.5-4.5,4.5-4.5-2.0186-4.5-4.5,2.0186-4.5,4.5-4.5ZM104,102c-2.7568,0-5,2.2432-5,5s2.2432,5,5,5,5-2.2432,5-5-2.2432-5-5-5Zm0,8c-1.6543,0-3-1.3457-3-3s1.3457-3,3-3,3,1.3457,3,3-1.3457,3-3,3Z" style="fill:#00aeef;"/></g></svg>